<svg xmlns="http://www.w3.org/2000/svg" width="208" height="72" viewBox="0 0 208 72">
  <g fill="none" fill-rule="evenodd" transform="translate(2 -2)">
    <g fill="#000" font-family="TimesNewRomanPS-ItalicMT, Times New Roman" font-size="48" font-style="italic" transform="translate(0 20.34)">
      <text>
        <tspan x="0" y="43">P</tspan>
      </text>
      <text>
        <tspan x="27.36" y="43">en &amp;</tspan>
      </text>
      <text>
        <tspan x="132" y="43">P</tspan>
      </text>
      <text>
        <tspan x="158.64" y="43">a</tspan>
      </text>
      <text>
        <tspan x="180.72" y="43">d</tspan>
      </text>
    </g>
    <path fill="red" d="M122.843988,22.7474192 L122.9143,22.6067942 C122.984613,22.5130437 123.075433,22.3958574 123.186761,22.2552317 C123.29809,22.114606 123.429925,21.9505451 123.582269,21.7630442 C124.414304,20.9896028 125.22582,20.0667605 126.016839,18.9944895 C126.807859,17.9222185 127.590078,16.6888324 128.363519,15.2942942 C128.45727,15.1653873 128.562737,14.9954671 128.679925,14.7845286 C128.797113,14.57359 128.926018,14.3099208 129.066644,13.9935129 C129.066644,13.9232001 129.049066,13.8704662 129.01391,13.8353098 C128.978753,13.8001534 128.92016,13.7825754 128.838128,13.7825754 C128.767816,13.7825754 128.653559,13.803083 128.495355,13.8440989 C128.337151,13.8851147 128.217035,13.9056223 128.135003,13.9056223 L125.937738,13.9056223 C125.843987,13.9056223 125.688715,13.899763 125.471918,13.8880442 C125.25512,13.8763254 125.099848,13.8704661 125.006097,13.8704661 C124.888909,13.811872 124.780512,13.7620678 124.680902,13.721052 C124.581292,13.6800362 124.484613,13.6360913 124.390863,13.5892161 C124.250237,13.5423408 124.14184,13.480818 124.065668,13.4046457 C123.989495,13.3284735 123.95141,13.2376541 123.95141,13.1321848 C123.95141,12.3821811 124.03051,11.807968 124.188714,11.4095286 C124.346918,11.0110891 124.59008,10.8118723 124.918207,10.8118723 C125.246333,10.8118723 125.553947,10.8265206 125.841058,10.8558176 C126.128169,10.8851146 126.383049,10.9232002 126.605707,10.9700754 C126.781489,10.934919 126.94555,10.8997631 127.097894,10.8646067 C127.414302,10.8646067 127.68383,10.8763253 127.906488,10.8997629 C128.129145,10.9232005 128.299065,10.9524971 128.416253,10.9876536 C128.568598,10.9524971 128.718011,10.9202709 128.864496,10.8909739 L129.347894,10.7942942 L129.927972,10.9700754 C130.33813,10.9232002 130.77465,10.3489872 131.237543,9.24741918 C131.700435,8.14585117 132.195548,7.59507543 132.722894,7.59507543 C133.004145,7.59507543 133.22094,7.68296518 133.373285,7.8587473 C133.525629,8.03452943 133.6018,8.29233936 133.6018,8.6321848 C133.6018,8.9017174 133.5227,9.25620605 133.364496,9.69566137 C133.206292,10.1351167 133.115472,10.4661681 133.092035,10.6888254 C133.115472,10.7357007 133.147699,10.7855049 133.188714,10.8382395 C133.22973,10.8909741 133.291253,10.952497 133.373285,11.0228098 C133.443598,11.069685 133.493402,11.1487858 133.522699,11.2601145 C133.551996,11.3714432 133.566644,11.5091371 133.566644,11.6732004 C133.566644,12.3763289 133.534418,12.9183157 133.469964,13.299177 C133.405511,13.6800383 133.302973,13.8763254 133.162347,13.8880442 L131.967035,14.1341379 C131.943597,14.251326 131.9143,14.3948793 131.879144,14.564802 C131.843988,14.7347247 131.797113,14.9310118 131.738519,15.1536692 C131.539299,15.7396096 131.316645,16.4837428 131.07055,17.3860911 C130.824455,18.2884393 130.549067,19.3548349 130.244378,20.5853098 C130.056878,21.5696897 129.913324,22.3665568 129.813714,22.9759348 C129.714105,23.5853129 129.6643,23.995465 129.6643,24.2064036 C129.6643,24.3939045 129.693597,24.5345281 129.752191,24.6282786 C129.810785,24.722029 129.898675,24.7689036 130.015863,24.7689036 C130.086176,24.7689036 130.341056,24.5989834 130.780511,24.2591379 C131.219967,23.9192925 131.832265,23.4153913 132.617425,22.7474192 L133.302972,24.3646067 C133.185784,24.4935136 133.021723,24.6458558 132.810785,24.8216379 C132.599846,24.9974201 132.347896,25.1849182 132.054925,25.3841379 C131.937737,25.5130448 131.791254,25.6565981 131.615472,25.814802 C131.43969,25.9730059 131.246333,26.1575744 131.035394,26.3685129 C130.824456,26.6028891 130.61645,26.8372618 130.411371,27.0716379 C130.206291,27.3060141 129.998286,27.5345274 129.787347,27.7571848 C129.506096,28.0618738 129.230708,28.2815982 128.961175,28.4163645 C128.691643,28.5511308 128.439692,28.6185129 128.205316,28.6185129 C127.689688,28.6185129 127.305903,28.4661707 127.053949,28.1614817 C126.801994,27.8567927 126.676019,27.3939067 126.676019,26.7728098 C126.676019,26.0931189 126.699456,25.5042576 126.746332,25.0062082 C126.793207,24.5081589 126.869378,24.1067957 126.974847,23.8021067 C127.021722,23.7083562 127.056878,23.6263258 127.080316,23.5560129 C127.080316,23.4388248 127.097894,23.2806233 127.13305,23.0814036 C127.168207,22.8821838 127.209222,22.6478112 127.256097,22.3782786 C127.32641,21.921245 127.402581,21.4642183 127.484613,21.0071848 C127.61352,20.7259334 127.748284,20.4271083 127.88891,20.1107004 C127.88891,20.0521064 127.842035,19.9993725 127.748285,19.9524973 L127.572503,20.0579661 C127.396721,20.3392175 127.168208,20.6351129 126.886957,20.9456614 C126.605705,21.2562098 126.271724,21.5814019 125.885003,21.9212473 C125.287344,22.4954689 124.677975,23.0755413 124.056878,23.6614817 C124.021722,23.7200757 123.95727,23.8079655 123.863519,23.9251536 C123.769769,24.0423416 123.664301,24.1888246 123.547113,24.3646067 C123.488519,24.223981 123.415277,24.0452718 123.327386,23.8284739 C123.239495,23.6116759 123.148676,23.362655 123.054925,23.0814036 C123.031488,23.0110907 123.002191,22.9466382 122.967035,22.8880442 C122.931878,22.8294501 122.890863,22.7825756 122.843988,22.7474192 Z M132.582269,22.7474192 C132.840083,22.5247618 133.0393,22.3489823 133.179925,22.2200754 C133.320551,22.0911685 133.431878,21.9798415 133.51391,21.8860911 C133.701411,21.7103089 133.853753,21.5403888 133.970941,21.3763254 C134.088129,21.2122621 134.152582,21.0657792 134.1643,20.9368723 C134.26977,20.5384328 134.392815,20.0403909 134.533441,19.4427317 C134.674067,18.8450724 134.855705,18.1536731 135.078363,17.3685129 C135.183832,17.1341368 135.298089,16.8382413 135.421136,16.4808176 C135.544184,16.123394 135.676018,15.7220308 135.816644,15.2767161 C135.95727,14.6907756 136.133049,14.1575778 136.343988,13.6771067 C136.554926,13.1966355 136.789299,12.7630461 137.047113,12.3763254 C137.129144,12.2708562 137.211175,12.1390215 137.293207,11.9808176 C137.375238,11.8226137 137.457269,11.6380452 137.5393,11.4271067 C137.621332,11.2396057 137.735589,11.0198814 137.882074,10.767927 C138.028559,10.5159726 138.195549,10.2200771 138.38305,9.88023168 C138.863521,9.17710316 139.285392,8.57359357 139.648675,8.0696848 C140.011958,7.56577604 140.310784,7.1614832 140.54516,6.85679418 C140.967037,6.35288541 141.391837,5.88121044 141.819574,5.44175512 C142.24731,5.0022998 142.67797,4.5950773 143.111566,4.22007543 C143.510005,3.88022998 143.855705,3.63120903 144.148675,3.47300512 C144.441646,3.3148012 144.676018,3.23570043 144.8518,3.23570043 C145.015864,3.37632613 145.13305,3.50523109 145.203363,3.62241918 C145.285394,3.62241918 145.367425,3.61070055 145.449457,3.58726293 C145.754146,3.58726293 145.9768,3.71030857 146.117425,3.95640355 C146.258051,4.20249854 146.328363,4.56577615 146.328363,5.0462473 C146.328363,5.15171658 146.310785,5.28941052 146.275628,5.45933324 C146.240472,5.62925597 146.193597,5.8372617 146.135003,6.08335668 C146.052972,6.16538834 145.994379,6.27085604 145.959222,6.39976293 C145.924066,6.52866982 145.894769,6.65757479 145.871332,6.78648168 C145.859613,6.950545 145.842035,7.09116859 145.818597,7.20835668 C145.79516,7.32554477 145.765863,7.43101246 145.730707,7.52476293 C145.578362,7.80601434 145.414301,8.14878435 145.238519,8.55308324 C145.062737,8.95738214 144.875239,9.42905711 144.676019,9.9681223 C144.558831,10.1673421 144.412348,10.4310113 144.236566,10.7591379 C144.060784,11.0872646 143.849848,11.4505422 143.603753,11.8489817 C143.486565,12.071639 143.337153,12.3499566 143.155511,12.6839426 C142.97387,13.0179287 142.742427,13.4017139 142.461175,13.8353098 C142.390862,13.9993731 142.270746,14.1780823 142.100824,14.3714426 C141.930901,14.564803 141.728755,14.7903866 141.494378,15.0482004 C141.424066,15.2357014 141.227778,15.5579638 140.905511,16.0149973 C140.583244,16.4720308 140.135006,17.0638218 139.560785,17.7903879 C139.279533,18.153671 138.916256,18.6048384 138.470941,19.1439036 C138.025626,19.6829688 137.510006,20.3216342 136.924066,21.0599192 C136.701409,21.9388298 136.534418,22.7210486 136.423089,23.4065989 C136.311761,24.0921492 136.256097,24.6868698 136.256097,25.1907786 C136.256097,25.3899983 136.270745,25.5394109 136.300043,25.6390207 C136.32934,25.7386306 136.385003,25.7884348 136.467035,25.7884348 C136.525629,25.7064031 136.610589,25.6126541 136.721918,25.5071848 C136.833246,25.4017155 136.947503,25.2786699 137.064691,25.1380442 C137.287348,24.9388244 137.548088,24.5696875 137.846918,24.0306223 C138.145747,23.4915571 138.488517,22.7942985 138.875238,21.9388254 C139.215083,21.1653841 139.519768,20.5706634 139.7893,20.1546457 C140.058833,19.738628 140.281487,19.4896071 140.457269,19.4075754 L141.072503,19.1439036 C141.189692,19.0970283 141.295159,19.0560131 141.38891,19.0208567 C141.48266,18.9857003 141.558831,18.9681223 141.617425,18.9681223 C141.76977,18.9681223 141.910393,19.0618714 142.0393,19.2493723 C142.168207,19.4368732 142.273675,19.6946832 142.355707,20.0228098 C142.508051,20.620469 142.631097,21.0804254 142.724847,21.4026926 C142.818598,21.7249599 142.871332,21.9153876 142.88305,21.9739817 C143.035395,22.3255459 143.219963,22.5833559 143.436761,22.7474192 C143.653559,22.9114825 143.914299,22.9935129 144.218988,22.9935129 C144.582271,22.9349189 145.010001,22.8528885 145.502191,22.7474192 C145.595941,22.9817954 145.704339,23.233746 145.827386,23.5032786 C145.950434,23.7728112 146.076409,24.0599177 146.205316,24.3646067 C145.924065,24.5521076 145.639888,24.7337464 145.352777,24.9095286 C145.065666,25.0853107 144.781489,25.2610902 144.500238,25.4368723 C144.312737,25.5423416 144.043208,25.6214424 143.691644,25.674177 C143.34008,25.7269116 142.929928,25.7532786 142.461175,25.7532786 C141.746328,25.7532786 141.192623,25.4163679 140.800043,24.7425364 C140.407462,24.0687049 140.17016,23.7376535 140.088128,23.7493723 L139.98266,23.7493723 C139.795159,23.9837485 139.598872,24.2239804 139.393793,24.4700754 C139.188713,24.7161704 138.986567,24.9739803 138.787347,25.2435129 C138.65844,25.5130455 138.476801,25.8235893 138.242425,26.1751536 C138.008049,26.5267178 137.726802,26.9134327 137.398675,27.3353098 C137.011955,27.8040621 136.672114,28.1556211 136.379144,28.3899973 C136.086174,28.6243735 135.834223,28.7415598 135.623285,28.7415598 C135.17797,28.7415598 134.829341,28.6917556 134.577386,28.5921457 C134.325432,28.4925359 134.176019,28.3431233 134.129144,28.1439036 C133.988518,27.4876503 133.880121,26.9163669 133.803949,26.4300364 C133.727777,25.9437058 133.689691,25.530624 133.689691,25.1907786 C133.689691,25.0853093 133.69555,24.9915602 133.707269,24.9095286 C133.718988,24.8274969 133.730707,24.7513258 133.742425,24.6810129 C133.777582,24.5286684 133.818597,24.3646076 133.865472,24.1888254 C133.865472,24.1302314 133.850824,24.0862865 133.821527,24.0569895 C133.79223,24.0276925 133.742426,24.0130442 133.672113,24.0130442 C133.636956,24.0599194 133.590082,24.1126533 133.531488,24.1712473 C133.472894,24.2298413 133.390863,24.2942938 133.285394,24.3646067 C133.238519,24.2122622 133.156488,24.0013268 133.0393,23.7317942 C132.922112,23.4622616 132.76977,23.1341399 132.582269,22.7474192 Z M144.00805,6.50523168 C143.879143,6.50523168 143.621334,6.73667468 143.234613,7.19956762 C142.847892,7.66246056 142.35571,8.34507092 141.75805,9.24741918 C141.418205,9.75132795 141.084224,10.2522995 140.756097,10.7503489 C140.427971,11.2483982 140.105708,11.7376512 139.7893,12.2181223 C139.648675,12.358748 139.546137,12.4993716 139.481683,12.6399973 C139.41723,12.780623 139.385003,12.9271059 139.385003,13.0794504 C139.150627,13.7357037 138.922114,14.3509319 138.699457,14.9251536 C138.488518,15.5462504 138.315668,16.0267144 138.180902,16.3665598 C138.046136,16.7064053 137.967035,16.905622 137.943597,16.9642161 L138.031488,17.0521067 C138.265864,16.8411681 138.465081,16.6185141 138.629144,16.3841379 C138.86352,16.1146053 139.147697,15.765976 139.481683,15.3382395 C139.815669,14.910503 140.193595,14.4095314 140.615472,13.8353098 C141.037349,13.2962446 141.470939,12.6136342 141.916253,11.7874582 C142.361568,10.9612822 142.842032,10.0091433 143.35766,8.93101293 C143.65063,8.3450725 143.870354,7.87632719 144.016839,7.52476293 C144.163324,7.17319867 144.236566,6.92710738 144.236566,6.78648168 C144.236566,6.70445002 144.221918,6.63706788 144.192621,6.58433324 C144.163324,6.5315986 144.101801,6.50523168 144.00805,6.50523168 Z M153.867846,15.8485274 C153.868868,15.8546621 153.869378,15.863277 153.869378,15.8743723 C153.868352,15.868215 153.867329,15.8620689 153.866308,15.855934 L153.867846,15.8485274 Z M153.867846,15.8485274 C153.862396,15.8157857 153.842399,15.8536974 153.807855,15.9622629 C153.766839,16.0911698 153.705316,16.2962459 153.623285,16.5774973 L153.465082,17.1399973 C153.301018,17.7025001 152.931881,18.3528842 152.35766,19.0911692 C151.783438,19.8294541 151.010008,20.6731957 150.037347,21.6224192 C149.955316,21.7044508 149.885004,21.8069889 149.82641,21.9300364 C149.767816,22.0530839 149.738519,22.1849185 149.738519,22.3255442 C149.738519,22.5716392 149.782464,22.7884339 149.870355,22.9759348 C149.958246,23.1634357 150.084221,23.3040593 150.248285,23.3978098 C150.342035,23.4681227 150.491448,23.5384345 150.696527,23.6087473 C150.901606,23.6790602 151.144768,23.7435126 151.426019,23.8021067 C151.883053,23.7669503 152.299064,23.6907791 152.674066,23.5735911 C153.049068,23.456403 153.383049,23.3157794 153.676019,23.1517161 C153.734613,23.1165596 153.828362,23.0667554 153.957269,23.002302 C154.086176,22.9378485 154.215081,22.8528885 154.343988,22.7474192 C154.496332,23.0872646 154.631097,23.3919491 154.748285,23.6614817 C154.865473,23.9310143 154.959222,24.1653869 155.029535,24.3646067 C154.361563,25.02086 153.755123,25.5159722 153.210199,25.8499582 C152.665274,26.1839443 152.164303,26.3509348 151.707269,26.3509348 C151.519768,26.4681229 151.305903,26.553083 151.065668,26.6058176 C150.825432,26.6585523 150.541255,26.6849192 150.213128,26.6849192 C149.779533,26.6849192 149.395747,26.6204667 149.061761,26.4915598 C148.727775,26.3626529 148.449458,26.1751548 148.2268,25.9290598 C148.109612,25.8118717 147.992426,25.6390219 147.875238,25.4105051 C147.75805,25.1819883 147.635004,24.9095301 147.506097,24.5931223 C147.400628,24.3353085 147.30102,24.1448807 147.207269,24.0218332 C147.113519,23.8987858 147.008051,23.8372629 146.890863,23.8372629 C146.797112,23.8372629 146.691645,23.8812078 146.574457,23.9690989 C146.457268,24.0569899 146.328364,24.1888246 146.187738,24.3646067 C146.140863,24.1888246 146.058832,23.9720298 145.941644,23.7142161 C145.824456,23.4564023 145.672114,23.1341399 145.484613,22.7474192 C145.625239,22.5013242 145.806877,22.2523033 146.029535,22.0003489 C146.252192,21.7483945 146.533439,21.4876549 146.873285,21.2181223 C146.908441,20.9837461 146.943597,20.7523031 146.978753,20.5237864 C147.01391,20.2952696 147.037347,20.0638266 147.049066,19.8294504 C147.084222,19.6653871 147.139886,19.4720297 147.216058,19.2493723 C147.29223,19.0267149 147.37719,18.786483 147.470941,18.5286692 C147.57641,18.2708554 147.719963,17.948593 147.901605,17.5618723 C148.083247,17.1751516 148.320549,16.7415622 148.613519,16.2610911 C148.859614,15.9915585 149.117424,15.695663 149.386957,15.3733957 C149.656489,15.0511285 149.926018,14.7259364 150.19555,14.3978098 C150.324457,14.2923405 150.465081,14.1927321 150.617425,14.0989817 C150.76977,14.0052312 150.922112,13.8997635 151.074457,13.7825754 C151.215082,13.7357002 151.373284,13.694685 151.549066,13.6595286 C151.724848,13.6243721 151.918206,13.6067942 152.129144,13.6067942 C152.422114,13.6067942 152.659417,13.6360908 152.841058,13.6946848 C153.0227,13.7532788 153.172112,13.8528872 153.2893,13.9935129 C153.371332,14.0872634 153.450433,14.227887 153.526605,14.4153879 C153.602777,14.6028889 153.676019,14.8314022 153.746332,15.1009348 C153.780718,15.3301799 153.82071,15.5818439 153.866308,15.855934 L153.867846,15.8485274 Z M151.109613,17.0345286 C150.851799,17.0345286 150.506099,17.3714392 150.072503,18.0452707 C149.638908,18.7191022 149.422113,19.2142145 149.422113,19.5306223 C149.422113,19.6009352 149.436761,19.6507393 149.466058,19.6800364 C149.495355,19.7093334 149.556878,19.7239817 149.650628,19.7239817 C149.779535,19.7239817 149.885003,19.6565995 149.967035,19.5218332 C150.049066,19.3870669 150.125237,19.2610916 150.19555,19.1439036 C150.324457,19.0267155 150.450433,18.9007402 150.57348,18.7659739 C150.696527,18.6312076 150.816643,18.4993729 150.933832,18.3704661 C151.074457,18.2064027 151.179925,18.0423419 151.250238,17.8782786 C151.320551,17.7142152 151.355707,17.5501544 151.355707,17.3860911 C151.355707,17.2806218 151.335199,17.1956617 151.294183,17.1312082 C151.253167,17.0667548 151.191644,17.0345286 151.109613,17.0345286 Z" transform="rotate(-11.535 138.937 15.989)"/>
    <path fill="red" d="M133.354375,69.4626562 C133.248906,69.7087512 132.991096,69.9050383 132.580938,70.0515234 C132.170779,70.1980085 131.608285,70.2946873 130.893438,70.3415625 C130.002808,70.4118754 129.510625,70.3591415 129.416875,70.1833594 C129.323125,70.0075772 129.27625,69.7321894 129.27625,69.3571875 L129.27625,68.4958594 C129.27625,68.3435149 129.249883,68.197032 129.197148,68.0564062 C129.144414,67.9157805 129.08875,67.7868756 129.030156,67.6696875 C128.198121,66.228274 127.412972,64.848405 126.674688,63.5300391 C125.936403,62.2116731 125.233285,60.9489904 124.565313,59.7419531 C123.616089,60.8669587 122.373914,62.4636225 120.83875,64.5319922 C119.303586,66.6003619 117.510635,69.111079 115.459844,72.0642187 C115.389531,72.1814068 115.325078,72.3220304 115.266484,72.4860937 C115.20789,72.6501571 115.137579,72.7907807 115.055547,72.9079687 C114.891484,73.1657825 114.657111,73.3181248 114.352422,73.365 C114.047733,73.4118752 113.72547,73.3591414 113.385625,73.2067969 C113.186405,73.1130464 113.054571,73.0017194 112.990117,72.8728125 C112.925664,72.7439056 112.940312,72.603282 113.034063,72.4509375 C114.276256,70.704835 115.509642,68.9001656 116.734258,67.036875 C117.958873,65.1735844 119.1864,63.2634473 120.416875,61.3064062 C120.873909,60.5564025 121.313357,59.8825811 121.735234,59.2849219 C122.157111,58.6872626 122.485233,58.1833614 122.719609,57.7732031 C122.766485,57.6794527 122.772344,57.5886333 122.737188,57.5007422 C122.702031,57.4128511 122.702031,57.3337504 122.737188,57.2634375 C122.889532,57.0173425 123.123905,56.7829699 123.440313,56.5603125 C123.534063,56.5017185 123.660038,56.446055 123.818242,56.3933203 C123.976446,56.3405857 124.166874,56.3142187 124.389531,56.3142187 C124.69422,56.3142187 124.934452,56.3405857 125.110234,56.3933203 C125.286017,56.446055 125.397344,56.4958591 125.444219,56.5427344 C125.643438,56.7067977 126.082887,57.2722217 126.762578,58.2390234 C127.442269,59.2058251 128.3739,60.5856942 129.5575,62.3786719 C130.823131,64.3239941 131.77527,65.8737833 132.413945,67.0280859 C133.05262,68.1823886 133.371953,68.9353107 133.371953,69.286875 L133.354375,69.4626562 Z"/>
  </g>
</svg>
